<?xml version="1.0" standalone="no"?>
<!DOCTYPE svg PUBLIC "-//W3C//DTD SVG 1.1//EN" "http://www.w3.org/Graphics/SVG/1.1/DTD/svg11.dtd">
<svg version="1.1" width="1200" height="678" onload="init(evt)" viewBox="0 0 1200 678" xmlns="http://www.w3.org/2000/svg" xmlns:xlink="http://www.w3.org/1999/xlink">
<!-- Flame graph stack visualization. See https://github.com/brendangregg/FlameGraph for latest version, and http://www.brendangregg.com/flamegraphs.html for examples. -->
<!-- NOTES:  -->
<defs>
	<linearGradient id="background" y1="0" y2="1" x1="0" x2="0" >
		<stop stop-color="#eeeeee" offset="5%" />
		<stop stop-color="#eeeeb0" offset="95%" />
	</linearGradient>
</defs>
<style type="text/css">
	text { font-family:Verdana; font-size:12px; fill:rgb(0,0,0); }
	#search, #ignorecase { opacity:0.1; cursor:pointer; }
	#search:hover, #search.show, #ignorecase:hover, #ignorecase.show { opacity:1; }
	#subtitle { text-anchor:middle; font-color:rgb(160,160,160); }
	#title { text-anchor:middle; font-size:17px}
	#unzoom { cursor:pointer; }
	#frames > *:hover { stroke:black; stroke-width:0.5; cursor:pointer; }
	.hide { display:none; }
	.parent { opacity:0.5; }
</style>
<script type="text/ecmascript">
<![CDATA[
	"use strict";
	var details, searchbtn, unzoombtn, matchedtxt, svg, searching, currentSearchTerm, ignorecase, ignorecaseBtn;
	function init(evt) {
		details = document.getElementById("details").firstChild;
		searchbtn = document.getElementById("search");
		ignorecaseBtn = document.getElementById("ignorecase");
		unzoombtn = document.getElementById("unzoom");
		matchedtxt = document.getElementById("matched");
		svg = document.getElementsByTagName("svg")[0];
		searching = 0;
		currentSearchTerm = null;

		// use GET parameters to restore a flamegraphs state.
		var params = get_params();
		if (params.x && params.y)
			zoom(find_group(document.querySelector('[x="' + params.x + '"][y="' + params.y + '"]')));
                if (params.s) search(params.s);
	}

	// event listeners
	window.addEventListener("click", function(e) {
		var target = find_group(e.target);
		if (target) {
			if (target.nodeName == "a") {
				if (e.ctrlKey === false) return;
				e.preventDefault();
			}
			if (target.classList.contains("parent")) unzoom(true);
			zoom(target);
			if (!document.querySelector('.parent')) {
				// we have basically done a clearzoom so clear the url
				var params = get_params();
				if (params.x) delete params.x;
				if (params.y) delete params.y;
				history.replaceState(null, null, parse_params(params));
				unzoombtn.classList.add("hide");
				return;
			}

			// set parameters for zoom state
			var el = target.querySelector("rect");
			if (el && el.attributes && el.attributes.y && el.attributes._orig_x) {
				var params = get_params()
				params.x = el.attributes._orig_x.value;
				params.y = el.attributes.y.value;
				history.replaceState(null, null, parse_params(params));
			}
		}
		else if (e.target.id == "unzoom") clearzoom();
		else if (e.target.id == "search") search_prompt();
		else if (e.target.id == "ignorecase") toggle_ignorecase();
	}, false)

	// mouse-over for info
	// show
	window.addEventListener("mouseover", function(e) {
		var target = find_group(e.target);
		if (target) details.nodeValue = "Function: " + g_to_text(target);
	}, false)

	// clear
	window.addEventListener("mouseout", function(e) {
		var target = find_group(e.target);
		if (target) details.nodeValue = ' ';
	}, false)

	// ctrl-F for search
	// ctrl-I to toggle case-sensitive search
	window.addEventListener("keydown",function (e) {
		if (e.keyCode === 114 || (e.ctrlKey && e.keyCode === 70)) {
			e.preventDefault();
			search_prompt();
		}
		else if (e.ctrlKey && e.keyCode === 73) {
			e.preventDefault();
			toggle_ignorecase();
		}
	}, false)

	// functions
	function get_params() {
		var params = {};
		var paramsarr = window.location.search.substr(1).split('&');
		for (var i = 0; i < paramsarr.length; ++i) {
			var tmp = paramsarr[i].split("=");
			if (!tmp[0] || !tmp[1]) continue;
			params[tmp[0]]  = decodeURIComponent(tmp[1]);
		}
		return params;
	}
	function parse_params(params) {
		var uri = "?";
		for (var key in params) {
			uri += key + '=' + encodeURIComponent(params[key]) + '&';
		}
		if (uri.slice(-1) == "&")
			uri = uri.substring(0, uri.length - 1);
		if (uri == '?')
			uri = window.location.href.split('?')[0];
		return uri;
	}
	function find_child(node, selector) {
		var children = node.querySelectorAll(selector);
		if (children.length) return children[0];
	}
	function find_group(node) {
		var parent = node.parentElement;
		if (!parent) return;
		if (parent.id == "frames") return node;
		return find_group(parent);
	}
	function orig_save(e, attr, val) {
		if (e.attributes["_orig_" + attr] != undefined) return;
		if (e.attributes[attr] == undefined) return;
		if (val == undefined) val = e.attributes[attr].value;
		e.setAttribute("_orig_" + attr, val);
	}
	function orig_load(e, attr) {
		if (e.attributes["_orig_"+attr] == undefined) return;
		e.attributes[attr].value = e.attributes["_orig_" + attr].value;
		e.removeAttribute("_orig_"+attr);
	}
	function g_to_text(e) {
		var text = find_child(e, "title").firstChild.nodeValue;
		return (text)
	}
	function g_to_func(e) {
		var func = g_to_text(e);
		// if there's any manipulation we want to do to the function
		// name before it's searched, do it here before returning.
		return (func);
	}
	function update_text(e) {
		var r = find_child(e, "rect");
		var t = find_child(e, "text");
		var w = parseFloat(r.attributes.width.value) -3;
		var txt = find_child(e, "title").textContent.replace(/\([^(]*\)$/,"");
		t.attributes.x.value = parseFloat(r.attributes.x.value) + 3;

		// Smaller than this size won't fit anything
		if (w < 2 * 12 * 0.59) {
			t.textContent = "";
			return;
		}

		t.textContent = txt;
		var sl = t.getSubStringLength(0, txt.length);
		// check if only whitespace or if we can fit the entire string into width w
		if (/^ *$/.test(txt) || sl < w)
			return;

		// this isn't perfect, but gives a good starting point
		// and avoids calling getSubStringLength too often
		var start = Math.floor((w/sl) * txt.length);
		for (var x = start; x > 0; x = x-2) {
			if (t.getSubStringLength(0, x + 2) <= w) {
				t.textContent = txt.substring(0, x) + "..";
				return;
			}
		}
		t.textContent = "";
	}

	// zoom
	function zoom_reset(e) {
		if (e.attributes != undefined) {
			orig_load(e, "x");
			orig_load(e, "width");
		}
		if (e.childNodes == undefined) return;
		for (var i = 0, c = e.childNodes; i < c.length; i++) {
			zoom_reset(c[i]);
		}
	}
	function zoom_child(e, x, ratio) {
		if (e.attributes != undefined) {
			if (e.attributes.x != undefined) {
				orig_save(e, "x");
				e.attributes.x.value = (parseFloat(e.attributes.x.value) - x - 10) * ratio + 10;
				if (e.tagName == "text")
					e.attributes.x.value = find_child(e.parentNode, "rect[x]").attributes.x.value + 3;
			}
			if (e.attributes.width != undefined) {
				orig_save(e, "width");
				e.attributes.width.value = parseFloat(e.attributes.width.value) * ratio;
			}
		}

		if (e.childNodes == undefined) return;
		for (var i = 0, c = e.childNodes; i < c.length; i++) {
			zoom_child(c[i], x - 10, ratio);
		}
	}
	function zoom_parent(e) {
		if (e.attributes) {
			if (e.attributes.x != undefined) {
				orig_save(e, "x");
				e.attributes.x.value = 10;
			}
			if (e.attributes.width != undefined) {
				orig_save(e, "width");
				e.attributes.width.value = parseInt(svg.width.baseVal.value) - (10 * 2);
			}
		}
		if (e.childNodes == undefined) return;
		for (var i = 0, c = e.childNodes; i < c.length; i++) {
			zoom_parent(c[i]);
		}
	}
	function zoom(node) {
		var attr = find_child(node, "rect").attributes;
		var width = parseFloat(attr.width.value);
		var xmin = parseFloat(attr.x.value);
		var xmax = parseFloat(xmin + width);
		var ymin = parseFloat(attr.y.value);
		var ratio = (svg.width.baseVal.value - 2 * 10) / width;

		// XXX: Workaround for JavaScript float issues (fix me)
		var fudge = 0.0001;

		unzoombtn.classList.remove("hide");

		var el = document.getElementById("frames").children;
		for (var i = 0; i < el.length; i++) {
			var e = el[i];
			var a = find_child(e, "rect").attributes;
			var ex = parseFloat(a.x.value);
			var ew = parseFloat(a.width.value);
			var upstack;
			// Is it an ancestor
			if (0 == 0) {
				upstack = parseFloat(a.y.value) > ymin;
			} else {
				upstack = parseFloat(a.y.value) < ymin;
			}
			if (upstack) {
				// Direct ancestor
				if (ex <= xmin && (ex+ew+fudge) >= xmax) {
					e.classList.add("parent");
					zoom_parent(e);
					update_text(e);
				}
				// not in current path
				else
					e.classList.add("hide");
			}
			// Children maybe
			else {
				// no common path
				if (ex < xmin || ex + fudge >= xmax) {
					e.classList.add("hide");
				}
				else {
					zoom_child(e, xmin, ratio);
					update_text(e);
				}
			}
		}
		search();
	}
	function unzoom(dont_update_text) {
		unzoombtn.classList.add("hide");
		var el = document.getElementById("frames").children;
		for(var i = 0; i < el.length; i++) {
			el[i].classList.remove("parent");
			el[i].classList.remove("hide");
			zoom_reset(el[i]);
			if(!dont_update_text) update_text(el[i]);
		}
		search();
	}
	function clearzoom() {
		unzoom();

		// remove zoom state
		var params = get_params();
		if (params.x) delete params.x;
		if (params.y) delete params.y;
		history.replaceState(null, null, parse_params(params));
	}

	// search
	function toggle_ignorecase() {
		ignorecase = !ignorecase;
		if (ignorecase) {
			ignorecaseBtn.classList.add("show");
		} else {
			ignorecaseBtn.classList.remove("show");
		}
		reset_search();
		search();
	}
	function reset_search() {
		var el = document.querySelectorAll("#frames rect");
		for (var i = 0; i < el.length; i++) {
			orig_load(el[i], "fill")
		}
		var params = get_params();
		delete params.s;
		history.replaceState(null, null, parse_params(params));
	}
	function search_prompt() {
		if (!searching) {
			var term = prompt("Enter a search term (regexp " +
			    "allowed, eg: ^ext4_)"
			    + (ignorecase ? ", ignoring case" : "")
			    + "\nPress Ctrl-i to toggle case sensitivity", "");
			if (term != null) search(term);
		} else {
			reset_search();
			searching = 0;
			currentSearchTerm = null;
			searchbtn.classList.remove("show");
			searchbtn.firstChild.nodeValue = "Search"
			matchedtxt.classList.add("hide");
			matchedtxt.firstChild.nodeValue = ""
		}
	}
	function search(term) {
		if (term) currentSearchTerm = term;
		if (currentSearchTerm === null) return;

		var re = new RegExp(currentSearchTerm, ignorecase ? 'i' : '');
		var el = document.getElementById("frames").children;
		var matches = new Object();
		var maxwidth = 0;
		for (var i = 0; i < el.length; i++) {
			var e = el[i];
			var func = g_to_func(e);
			var rect = find_child(e, "rect");
			if (func == null || rect == null)
				continue;

			// Save max width. Only works as we have a root frame
			var w = parseFloat(rect.attributes.width.value);
			if (w > maxwidth)
				maxwidth = w;

			if (func.match(re)) {
				// highlight
				var x = parseFloat(rect.attributes.x.value);
				orig_save(rect, "fill");
				rect.attributes.fill.value = "rgb(230,0,230)";

				// remember matches
				if (matches[x] == undefined) {
					matches[x] = w;
				} else {
					if (w > matches[x]) {
						// overwrite with parent
						matches[x] = w;
					}
				}
				searching = 1;
			}
		}
		if (!searching)
			return;
		var params = get_params();
		params.s = currentSearchTerm;
		history.replaceState(null, null, parse_params(params));

		searchbtn.classList.add("show");
		searchbtn.firstChild.nodeValue = "Reset Search";

		// calculate percent matched, excluding vertical overlap
		var count = 0;
		var lastx = -1;
		var lastw = 0;
		var keys = Array();
		for (k in matches) {
			if (matches.hasOwnProperty(k))
				keys.push(k);
		}
		// sort the matched frames by their x location
		// ascending, then width descending
		keys.sort(function(a, b){
			return a - b;
		});
		// Step through frames saving only the biggest bottom-up frames
		// thanks to the sort order. This relies on the tree property
		// where children are always smaller than their parents.
		var fudge = 0.0001;	// JavaScript floating point
		for (var k in keys) {
			var x = parseFloat(keys[k]);
			var w = matches[keys[k]];
			if (x >= lastx + lastw - fudge) {
				count += w;
				lastx = x;
				lastw = w;
			}
		}
		// display matched percent
		matchedtxt.classList.remove("hide");
		var pct = 100 * count / maxwidth;
		if (pct != 100) pct = pct.toFixed(1)
		matchedtxt.firstChild.nodeValue = "Matched: " + pct + "%";
	}
]]>
</script>
<rect x="0.0" y="0" width="1200.0" height="678.0" fill="url(#background)"  />
<text id="title" x="600.00" y="24" >Flame Graph</text>
<text id="details" x="10.00" y="661" > </text>
<text id="unzoom" x="10.00" y="24" class="hide">Reset Zoom</text>
<text id="search" x="1090.00" y="24" >Search</text>
<text id="ignorecase" x="1174.00" y="24" >ic</text>
<text id="matched" x="1090.00" y="661" > </text>
<g id="frames">
<g >
<title>cpu_startup_entry (920,646,455,440 samples, 95.88%)</title><rect x="21.9" y="565" width="1131.4" height="15.0" fill="rgb(252,220,52)" rx="2" ry="2" />
<text  x="24.87" y="575.5" >cpu_startup_entry</text>
</g>
<g >
<title>[containerd-shim-runc-v2] (161,616,160 samples, 0.02%)</title><rect x="11.9" y="405" width="0.2" height="15.0" fill="rgb(211,28,6)" rx="2" ry="2" />
<text  x="14.95" y="415.5" ></text>
</g>
<g >
<title>azsecd (121,212,120 samples, 0.01%)</title><rect x="11.1" y="613" width="0.2" height="15.0" fill="rgb(217,59,14)" rx="2" ry="2" />
<text  x="14.14" y="623.5" ></text>
</g>
<g >
<title>[containerd-shim-runc-v2] (303,030,300 samples, 0.03%)</title><rect x="11.8" y="581" width="0.4" height="15.0" fill="rgb(211,28,6)" rx="2" ry="2" />
<text  x="14.85" y="591.5" ></text>
</g>
<g >
<title>path/filepath.Walk (606,060,600 samples, 0.06%)</title><rect x="12.2" y="501" width="0.8" height="15.0" fill="rgb(205,1,0)" rx="2" ry="2" />
<text  x="15.25" y="511.5" ></text>
</g>
<g >
<title>runtime.gcBgMarkWorker (131,313,130 samples, 0.01%)</title><rect x="13.2" y="565" width="0.2" height="15.0" fill="rgb(235,140,33)" rx="2" ry="2" />
<text  x="16.23" y="575.5" ></text>
</g>
<g >
<title>[kubelet] (242,424,240 samples, 0.03%)</title><rect x="20.2" y="213" width="0.3" height="15.0" fill="rgb(242,174,41)" rx="2" ry="2" />
<text  x="23.15" y="223.5" ></text>
</g>
<g >
<title>[kubelet] (1,070,707,060 samples, 0.11%)</title><rect x="19.4" y="485" width="1.4" height="15.0" fill="rgb(242,174,41)" rx="2" ry="2" />
<text  x="22.45" y="495.5" ></text>
</g>
<g >
<title>[unknown] (454,545,450 samples, 0.05%)</title><rect x="10.1" y="597" width="0.6" height="15.0" fill="rgb(210,24,5)" rx="2" ry="2" />
<text  x="13.12" y="607.5" ></text>
</g>
<g >
<title>d_absolute_path (101,010,100 samples, 0.01%)</title><rect x="15.8" y="357" width="0.2" height="15.0" fill="rgb(244,179,42)" rx="2" ry="2" />
<text  x="18.85" y="367.5" ></text>
</g>
<g >
<title>systemd-journal (262,626,260 samples, 0.03%)</title><rect x="1189.7" y="613" width="0.3" height="15.0" fill="rgb(224,90,21)" rx="2" ry="2" />
<text  x="1192.66" y="623.5" ></text>
</g>
<g >
<title>irq_exit_rcu (141,414,140 samples, 0.01%)</title><rect x="1189.4" y="373" width="0.2" height="15.0" fill="rgb(254,227,54)" rx="2" ry="2" />
<text  x="1192.40" y="383.5" ></text>
</g>
<g >
<title>[kubelet] (1,323,232,310 samples, 0.14%)</title><rect x="19.2" y="549" width="1.6" height="15.0" fill="rgb(242,174,41)" rx="2" ry="2" />
<text  x="22.22" y="559.5" ></text>
</g>
<g >
<title>rest_init (29,565,656,270 samples, 3.08%)</title><rect x="1153.3" y="517" width="36.3" height="15.0" fill="rgb(252,217,51)" rx="2" ry="2" />
<text  x="1156.29" y="527.5" >res..</text>
</g>
<g >
<title>sysvec_hyperv_stimer0 (272,727,270 samples, 0.03%)</title><rect x="1152.5" y="453" width="0.3" height="15.0" fill="rgb(212,35,8)" rx="2" ry="2" />
<text  x="1155.51" y="463.5" ></text>
</g>
<g >
<title>[kubelet] (101,010,100 samples, 0.01%)</title><rect x="20.3" y="53" width="0.1" height="15.0" fill="rgb(242,174,41)" rx="2" ry="2" />
<text  x="23.27" y="63.5" ></text>
</g>
<g >
<title>arch_call_rest_init (29,565,656,270 samples, 3.08%)</title><rect x="1153.3" y="533" width="36.3" height="15.0" fill="rgb(238,156,37)" rx="2" ry="2" />
<text  x="1156.29" y="543.5" >arc..</text>
</g>
<g >
<title>[unknown] (101,010,100 samples, 0.01%)</title><rect x="11.6" y="597" width="0.1" height="15.0" fill="rgb(210,24,5)" rx="2" ry="2" />
<text  x="14.59" y="607.5" ></text>
</g>
<g >
<title>path/filepath.walk (222,222,220 samples, 0.02%)</title><rect x="12.7" y="373" width="0.3" height="15.0" fill="rgb(248,200,48)" rx="2" ry="2" />
<text  x="15.72" y="383.5" ></text>
</g>
<g >
<title>swapper (950,212,111,710 samples, 98.96%)</title><rect x="21.9" y="613" width="1167.7" height="15.0" fill="rgb(239,158,37)" rx="2" ry="2" />
<text  x="24.87" y="623.5" >swapper</text>
</g>
<g >
<title>[libjq.so.1.0.4] (979,797,970 samples, 0.10%)</title><rect x="17.8" y="581" width="1.2" height="15.0" fill="rgb(240,161,38)" rx="2" ry="2" />
<text  x="20.83" y="591.5" ></text>
</g>
<g >
<title>[kubelet] (111,111,110 samples, 0.01%)</title><rect x="20.3" y="101" width="0.1" height="15.0" fill="rgb(242,174,41)" rx="2" ry="2" />
<text  x="23.25" y="111.5" ></text>
</g>
<g >
<title>ph-msgpack-unix (90,909,090 samples, 0.01%)</title><rect x="21.2" y="613" width="0.2" height="15.0" fill="rgb(223,86,20)" rx="2" ry="2" />
<text  x="24.25" y="623.5" ></text>
</g>
<g >
<title>[libc.so.6] (90,909,090 samples, 0.01%)</title><rect x="16.3" y="597" width="0.1" height="15.0" fill="rgb(223,84,20)" rx="2" ry="2" />
<text  x="19.27" y="607.5" ></text>
</g>
<g >
<title>sh (171,717,170 samples, 0.02%)</title><rect x="21.5" y="613" width="0.3" height="15.0" fill="rgb(248,201,48)" rx="2" ry="2" />
<text  x="24.54" y="623.5" ></text>
</g>
<g >
<title>os.Lstat (101,010,100 samples, 0.01%)</title><rect x="12.7" y="357" width="0.2" height="15.0" fill="rgb(247,194,46)" rx="2" ry="2" />
<text  x="15.73" y="367.5" ></text>
</g>
<g >
<title>arch_cpu_idle (29,555,555,260 samples, 3.08%)</title><rect x="1153.3" y="437" width="36.3" height="15.0" fill="rgb(218,62,14)" rx="2" ry="2" />
<text  x="1156.29" y="447.5" >arc..</text>
</g>
<g >
<title>[ld-linux-x86-64.so.2] (151,515,150 samples, 0.02%)</title><rect x="13.6" y="597" width="0.2" height="15.0" fill="rgb(243,178,42)" rx="2" ry="2" />
<text  x="16.60" y="607.5" ></text>
</g>
<g >
<title>aa_dfa_match (212,121,210 samples, 0.02%)</title><rect x="15.5" y="389" width="0.2" height="15.0" fill="rgb(210,23,5)" rx="2" ry="2" />
<text  x="18.46" y="399.5" ></text>
</g>
<g >
<title>[kubelet] (171,717,170 samples, 0.02%)</title><rect x="20.2" y="165" width="0.2" height="15.0" fill="rgb(242,174,41)" rx="2" ry="2" />
<text  x="23.20" y="175.5" ></text>
</g>
<g >
<title>runtime.gcDrain (131,313,130 samples, 0.01%)</title><rect x="13.2" y="517" width="0.2" height="15.0" fill="rgb(233,130,31)" rx="2" ry="2" />
<text  x="16.23" y="527.5" ></text>
</g>
<g >
<title>[kubelet] (252,525,250 samples, 0.03%)</title><rect x="20.1" y="245" width="0.4" height="15.0" fill="rgb(242,174,41)" rx="2" ry="2" />
<text  x="23.14" y="255.5" ></text>
</g>
<g >
<title>vfs_statx (676,767,670 samples, 0.07%)</title><rect x="15.3" y="485" width="0.8" height="15.0" fill="rgb(242,172,41)" rx="2" ry="2" />
<text  x="18.29" y="495.5" ></text>
</g>
<g >
<title>irq_exit_rcu (272,727,270 samples, 0.03%)</title><rect x="1152.5" y="437" width="0.3" height="15.0" fill="rgb(254,227,54)" rx="2" ry="2" />
<text  x="1155.51" y="447.5" ></text>
</g>
<g >
<title>[kubelet] (272,727,270 samples, 0.03%)</title><rect x="20.1" y="261" width="0.4" height="15.0" fill="rgb(242,174,41)" rx="2" ry="2" />
<text  x="23.12" y="271.5" ></text>
</g>
<g >
<title>auoms (626,262,620 samples, 0.07%)</title><rect x="10.1" y="613" width="0.7" height="15.0" fill="rgb(217,55,13)" rx="2" ry="2" />
<text  x="13.06" y="623.5" ></text>
</g>
<g >
<title>[kubelet] (1,323,232,310 samples, 0.14%)</title><rect x="19.2" y="597" width="1.6" height="15.0" fill="rgb(242,174,41)" rx="2" ry="2" />
<text  x="22.22" y="607.5" ></text>
</g>
<g >
<title>__do_sys_newfstatat (747,474,740 samples, 0.08%)</title><rect x="15.2" y="501" width="0.9" height="15.0" fill="rgb(243,177,42)" rx="2" ry="2" />
<text  x="18.20" y="511.5" ></text>
</g>
<g >
<title>do_idle (29,565,656,270 samples, 3.08%)</title><rect x="1153.3" y="485" width="36.3" height="15.0" fill="rgb(212,34,8)" rx="2" ry="2" />
<text  x="1156.29" y="495.5" >do_..</text>
</g>
<g >
<title>[kubelet] (999,999,990 samples, 0.10%)</title><rect x="19.5" y="469" width="1.2" height="15.0" fill="rgb(242,174,41)" rx="2" ry="2" />
<text  x="22.48" y="479.5" ></text>
</g>
<g >
<title>[kubelet] (111,111,110 samples, 0.01%)</title><rect x="20.3" y="85" width="0.1" height="15.0" fill="rgb(242,174,41)" rx="2" ry="2" />
<text  x="23.25" y="95.5" ></text>
</g>
<g >
<title>[kubelet] (575,757,570 samples, 0.06%)</title><rect x="19.9" y="373" width="0.7" height="15.0" fill="rgb(242,174,41)" rx="2" ry="2" />
<text  x="22.93" y="383.5" ></text>
</g>
<g >
<title>[containerd-shim-runc-v2] (222,222,220 samples, 0.02%)</title><rect x="11.9" y="485" width="0.3" height="15.0" fill="rgb(211,28,6)" rx="2" ry="2" />
<text  x="14.90" y="495.5" ></text>
</g>
<g >
<title>[kubelet] (1,323,232,310 samples, 0.14%)</title><rect x="19.2" y="581" width="1.6" height="15.0" fill="rgb(242,174,41)" rx="2" ry="2" />
<text  x="22.22" y="591.5" ></text>
</g>
<g >
<title>[kubelet] (363,636,360 samples, 0.04%)</title><rect x="20.1" y="309" width="0.4" height="15.0" fill="rgb(242,174,41)" rx="2" ry="2" />
<text  x="23.06" y="319.5" ></text>
</g>
<g >
<title>[containerd-shim-runc-v2] (171,717,170 samples, 0.02%)</title><rect x="11.9" y="421" width="0.2" height="15.0" fill="rgb(211,28,6)" rx="2" ry="2" />
<text  x="14.94" y="431.5" ></text>
</g>
<g >
<title>secondary_startup_64_no_verify (950,212,111,710 samples, 98.96%)</title><rect x="21.9" y="597" width="1167.7" height="15.0" fill="rgb(239,157,37)" rx="2" ry="2" />
<text  x="24.87" y="607.5" >secondary_startup_64_no_verify</text>
</g>
<g >
<title>x86_64_start_kernel (29,565,656,270 samples, 3.08%)</title><rect x="1153.3" y="581" width="36.3" height="15.0" fill="rgb(206,7,1)" rx="2" ry="2" />
<text  x="1156.29" y="591.5" >x86..</text>
</g>
<g >
<title>[kubelet] (111,111,110 samples, 0.01%)</title><rect x="20.3" y="69" width="0.1" height="15.0" fill="rgb(242,174,41)" rx="2" ry="2" />
<text  x="23.25" y="79.5" ></text>
</g>
<g >
<title>path/filepath.walk (585,858,580 samples, 0.06%)</title><rect x="12.3" y="453" width="0.7" height="15.0" fill="rgb(248,200,48)" rx="2" ry="2" />
<text  x="15.27" y="463.5" ></text>
</g>
<g >
<title>[kubelet] (747,474,740 samples, 0.08%)</title><rect x="19.8" y="437" width="0.9" height="15.0" fill="rgb(242,174,41)" rx="2" ry="2" />
<text  x="22.76" y="447.5" ></text>
</g>
<g >
<title>runtime.systemstack.abi0 (131,313,130 samples, 0.01%)</title><rect x="13.2" y="549" width="0.2" height="15.0" fill="rgb(211,28,6)" rx="2" ry="2" />
<text  x="16.23" y="559.5" ></text>
</g>
<g >
<title>[containerd-shim-runc-v2] (292,929,290 samples, 0.03%)</title><rect x="11.9" y="533" width="0.3" height="15.0" fill="rgb(211,28,6)" rx="2" ry="2" />
<text  x="14.86" y="543.5" ></text>
</g>
<g >
<title>runtime.gcBgMarkStartWorkers.gowrap1 (131,313,130 samples, 0.01%)</title><rect x="13.2" y="581" width="0.2" height="15.0" fill="rgb(243,176,42)" rx="2" ry="2" />
<text  x="16.23" y="591.5" ></text>
</g>
<g >
<title>github.com/containerd/containerd/metadata.(*snapshotter).Usage (606,060,600 samples, 0.06%)</title><rect x="12.2" y="549" width="0.8" height="15.0" fill="rgb(228,106,25)" rx="2" ry="2" />
<text  x="15.25" y="559.5" ></text>
</g>
<g >
<title>handle_softirqs (272,727,270 samples, 0.03%)</title><rect x="1152.5" y="405" width="0.3" height="15.0" fill="rgb(238,156,37)" rx="2" ry="2" />
<text  x="1155.51" y="415.5" ></text>
</g>
<g >
<title>schedule_idle (232,323,230 samples, 0.02%)</title><rect x="1152.9" y="533" width="0.3" height="15.0" fill="rgb(216,54,13)" rx="2" ry="2" />
<text  x="1155.90" y="543.5" ></text>
</g>
<g >
<title>runtime.goexit.abi0 (969,696,960 samples, 0.10%)</title><rect x="12.2" y="597" width="1.2" height="15.0" fill="rgb(246,190,45)" rx="2" ry="2" />
<text  x="15.22" y="607.5" ></text>
</g>
<g >
<title>check_scheduled (232,323,230 samples, 0.02%)</title><rect x="11.6" y="613" width="0.2" height="15.0" fill="rgb(250,210,50)" rx="2" ry="2" />
<text  x="14.55" y="623.5" ></text>
</g>
<g >
<title>[crictl] (90,909,090 samples, 0.01%)</title><rect x="13.5" y="581" width="0.1" height="15.0" fill="rgb(234,134,32)" rx="2" ry="2" />
<text  x="16.48" y="591.5" ></text>
</g>
<g >
<title>[kubelet] (242,424,240 samples, 0.03%)</title><rect x="20.2" y="229" width="0.3" height="15.0" fill="rgb(242,174,41)" rx="2" ry="2" />
<text  x="23.15" y="239.5" ></text>
</g>
<g >
<title>__schedule (232,323,230 samples, 0.02%)</title><rect x="1152.9" y="517" width="0.3" height="15.0" fill="rgb(227,103,24)" rx="2" ry="2" />
<text  x="1155.90" y="527.5" ></text>
</g>
<g >
<title>security_inode_getattr (505,050,500 samples, 0.05%)</title><rect x="15.4" y="469" width="0.6" height="15.0" fill="rgb(216,53,12)" rx="2" ry="2" />
<text  x="18.35" y="479.5" ></text>
</g>
<g >
<title>[containerd-shim-runc-v2] (303,030,300 samples, 0.03%)</title><rect x="11.8" y="565" width="0.4" height="15.0" fill="rgb(211,28,6)" rx="2" ry="2" />
<text  x="14.85" y="575.5" ></text>
</g>
<g >
<title>[kubelet] (343,434,340 samples, 0.04%)</title><rect x="20.1" y="293" width="0.4" height="15.0" fill="rgb(242,174,41)" rx="2" ry="2" />
<text  x="23.07" y="303.5" ></text>
</g>
<g >
<title>[kubelet] (646,464,640 samples, 0.07%)</title><rect x="19.8" y="389" width="0.8" height="15.0" fill="rgb(242,174,41)" rx="2" ry="2" />
<text  x="22.84" y="399.5" ></text>
</g>
<g >
<title>[kubelet] (1,222,222,210 samples, 0.13%)</title><rect x="19.3" y="517" width="1.5" height="15.0" fill="rgb(242,174,41)" rx="2" ry="2" />
<text  x="22.32" y="527.5" ></text>
</g>
<g >
<title>cpu_startup_entry (29,565,656,270 samples, 3.08%)</title><rect x="1153.3" y="501" width="36.3" height="15.0" fill="rgb(252,220,52)" rx="2" ry="2" />
<text  x="1156.29" y="511.5" >cpu..</text>
</g>
<g >
<title>d_namespace_path.constprop.0 (101,010,100 samples, 0.01%)</title><rect x="15.8" y="373" width="0.2" height="15.0" fill="rgb(225,95,22)" rx="2" ry="2" />
<text  x="18.85" y="383.5" ></text>
</g>
<g >
<title>[containerd-shim-runc-v2] (131,313,130 samples, 0.01%)</title><rect x="12.0" y="389" width="0.1" height="15.0" fill="rgb(211,28,6)" rx="2" ry="2" />
<text  x="14.96" y="399.5" ></text>
</g>
<g >
<title>[unknown] (1,030,303,020 samples, 0.11%)</title><rect x="17.8" y="597" width="1.3" height="15.0" fill="rgb(210,24,5)" rx="2" ry="2" />
<text  x="20.81" y="607.5" ></text>
</g>
<g >
<title>entry_SYSCALL_64_after_hwframe (818,181,810 samples, 0.09%)</title><rect x="15.1" y="565" width="1.0" height="15.0" fill="rgb(218,63,15)" rx="2" ry="2" />
<text  x="18.13" y="575.5" ></text>
</g>
<g >
<title>start_secondary (920,646,455,440 samples, 95.88%)</title><rect x="21.9" y="581" width="1131.4" height="15.0" fill="rgb(242,170,40)" rx="2" ry="2" />
<text  x="24.87" y="591.5" >start_secondary</text>
</g>
<g >
<title>all (960,171,707,570 samples, 100%)</title><rect x="10.0" y="629" width="1180.0" height="15.0" fill="rgb(213,39,9)" rx="2" ry="2" />
<text  x="13.00" y="639.5" ></text>
</g>
<g >
<title>[kubelet] (121,212,120 samples, 0.01%)</title><rect x="20.2" y="117" width="0.2" height="15.0" fill="rgb(242,174,41)" rx="2" ry="2" />
<text  x="23.24" y="127.5" ></text>
</g>
<g >
<title>[containerd-shim-runc-v2] (191,919,190 samples, 0.02%)</title><rect x="11.9" y="453" width="0.3" height="15.0" fill="rgb(211,28,6)" rx="2" ry="2" />
<text  x="14.92" y="463.5" ></text>
</g>
<g >
<title>curl (474,747,470 samples, 0.05%)</title><rect x="13.6" y="613" width="0.6" height="15.0" fill="rgb(234,133,32)" rx="2" ry="2" />
<text  x="16.59" y="623.5" ></text>
</g>
<g >
<title>__aa_path_perm (242,424,240 samples, 0.03%)</title><rect x="15.4" y="405" width="0.3" height="15.0" fill="rgb(217,58,14)" rx="2" ry="2" />
<text  x="18.44" y="415.5" ></text>
</g>
<g >
<title>[crictl] (90,909,090 samples, 0.01%)</title><rect x="13.5" y="597" width="0.1" height="15.0" fill="rgb(234,134,32)" rx="2" ry="2" />
<text  x="16.48" y="607.5" ></text>
</g>
<g >
<title>[kubelet] (1,323,232,310 samples, 0.14%)</title><rect x="19.2" y="565" width="1.6" height="15.0" fill="rgb(242,174,41)" rx="2" ry="2" />
<text  x="22.22" y="575.5" ></text>
</g>
<g >
<title>aa_path_perm (454,545,450 samples, 0.05%)</title><rect x="15.4" y="421" width="0.6" height="15.0" fill="rgb(245,184,44)" rx="2" ry="2" />
<text  x="18.41" y="431.5" ></text>
</g>
<g >
<title>github.com/containerd/containerd/pkg/cri/server.(*snapshotsSyncer).sync (626,262,620 samples, 0.07%)</title><rect x="12.2" y="565" width="0.8" height="15.0" fill="rgb(235,138,33)" rx="2" ry="2" />
<text  x="15.25" y="575.5" ></text>
</g>
<g >
<title>[unknown] (212,121,210 samples, 0.02%)</title><rect x="1189.7" y="597" width="0.3" height="15.0" fill="rgb(210,24,5)" rx="2" ry="2" />
<text  x="1192.69" y="607.5" ></text>
</g>
<g >
<title>default_idle_call (29,555,555,260 samples, 3.08%)</title><rect x="1153.3" y="453" width="36.3" height="15.0" fill="rgb(213,39,9)" rx="2" ry="2" />
<text  x="1156.29" y="463.5" >def..</text>
</g>
<g >
<title>path/filepath.walk (555,555,550 samples, 0.06%)</title><rect x="12.3" y="437" width="0.7" height="15.0" fill="rgb(248,200,48)" rx="2" ry="2" />
<text  x="15.31" y="447.5" ></text>
</g>
<g >
<title>[kubelet] (535,353,530 samples, 0.06%)</title><rect x="20.0" y="357" width="0.6" height="15.0" fill="rgb(242,174,41)" rx="2" ry="2" />
<text  x="22.98" y="367.5" ></text>
</g>
<g >
<title>__irq_exit_rcu (272,727,270 samples, 0.03%)</title><rect x="1152.5" y="421" width="0.3" height="15.0" fill="rgb(227,101,24)" rx="2" ry="2" />
<text  x="1155.51" y="431.5" ></text>
</g>
<g >
<title>[kubelet] (1,292,929,280 samples, 0.13%)</title><rect x="19.3" y="533" width="1.5" height="15.0" fill="rgb(242,174,41)" rx="2" ry="2" />
<text  x="22.26" y="543.5" ></text>
</g>
<g >
<title>path/filepath.walk (343,434,340 samples, 0.04%)</title><rect x="12.6" y="389" width="0.4" height="15.0" fill="rgb(248,200,48)" rx="2" ry="2" />
<text  x="15.57" y="399.5" ></text>
</g>
<g >
<title>github.com/containerd/continuity/fs.diskUsage (606,060,600 samples, 0.06%)</title><rect x="12.2" y="517" width="0.8" height="15.0" fill="rgb(210,23,5)" rx="2" ry="2" />
<text  x="15.25" y="527.5" ></text>
</g>
<g >
<title>[libc.so.6] (111,111,110 samples, 0.01%)</title><rect x="14.4" y="581" width="0.2" height="15.0" fill="rgb(223,84,20)" rx="2" ry="2" />
<text  x="17.43" y="591.5" ></text>
</g>
<g >
<title>start_kernel (29,565,656,270 samples, 3.08%)</title><rect x="1153.3" y="549" width="36.3" height="15.0" fill="rgb(254,227,54)" rx="2" ry="2" />
<text  x="1156.29" y="559.5" >sta..</text>
</g>
<g >
<title>github.com/containerd/containerd/pkg/cri/server.(*snapshotsSyncer).start.func1 (626,262,620 samples, 0.07%)</title><rect x="12.2" y="581" width="0.8" height="15.0" fill="rgb(226,99,23)" rx="2" ry="2" />
<text  x="15.25" y="591.5" ></text>
</g>
<g >
<title>github.com/containerd/containerd/snapshots/overlay.(*snapshotter).Usage (606,060,600 samples, 0.06%)</title><rect x="12.2" y="533" width="0.8" height="15.0" fill="rgb(253,224,53)" rx="2" ry="2" />
<text  x="15.25" y="543.5" ></text>
</g>
<g >
<title>[unknown] (1,414,141,400 samples, 0.15%)</title><rect x="14.4" y="597" width="1.8" height="15.0" fill="rgb(210,24,5)" rx="2" ry="2" />
<text  x="17.43" y="607.5" ></text>
</g>
<g >
<title>[unknown] (131,313,130 samples, 0.01%)</title><rect x="10.9" y="597" width="0.1" height="15.0" fill="rgb(210,24,5)" rx="2" ry="2" />
<text  x="13.86" y="607.5" ></text>
</g>
<g >
<title>path/filepath.walk (606,060,600 samples, 0.06%)</title><rect x="12.2" y="485" width="0.8" height="15.0" fill="rgb(248,200,48)" rx="2" ry="2" />
<text  x="15.25" y="495.5" ></text>
</g>
<g >
<title>sleep (90,909,090 samples, 0.01%)</title><rect x="21.8" y="613" width="0.1" height="15.0" fill="rgb(244,182,43)" rx="2" ry="2" />
<text  x="24.76" y="623.5" ></text>
</g>
<g >
<title>x86_64_start_reservations (29,565,656,270 samples, 3.08%)</title><rect x="1153.3" y="565" width="36.3" height="15.0" fill="rgb(239,159,38)" rx="2" ry="2" />
<text  x="1156.29" y="575.5" >x86..</text>
</g>
<g >
<title>[kubelet] (90,909,090 samples, 0.01%)</title><rect x="20.3" y="37" width="0.1" height="15.0" fill="rgb(242,174,41)" rx="2" ry="2" />
<text  x="23.28" y="47.5" ></text>
</g>
<g >
<title>tick_nohz_idle_exit (90,909,090 samples, 0.01%)</title><rect x="1153.2" y="533" width="0.1" height="15.0" fill="rgb(246,192,46)" rx="2" ry="2" />
<text  x="1156.18" y="543.5" ></text>
</g>
<g >
<title>kubelet (1,323,232,310 samples, 0.14%)</title><rect x="19.2" y="613" width="1.6" height="15.0" fill="rgb(231,122,29)" rx="2" ry="2" />
<text  x="22.22" y="623.5" ></text>
</g>
<g >
<title>containerd (1,020,202,010 samples, 0.11%)</title><rect x="12.2" y="613" width="1.3" height="15.0" fill="rgb(246,191,45)" rx="2" ry="2" />
<text  x="15.22" y="623.5" ></text>
</g>
<g >
<title>aa_path_name (111,111,110 samples, 0.01%)</title><rect x="15.8" y="389" width="0.2" height="15.0" fill="rgb(217,59,14)" rx="2" ry="2" />
<text  x="18.83" y="399.5" ></text>
</g>
<g >
<title>[kubelet] (232,323,230 samples, 0.02%)</title><rect x="20.2" y="197" width="0.3" height="15.0" fill="rgb(242,174,41)" rx="2" ry="2" />
<text  x="23.17" y="207.5" ></text>
</g>
<g >
<title>[kubelet] (464,646,460 samples, 0.05%)</title><rect x="20.0" y="325" width="0.6" height="15.0" fill="rgb(242,174,41)" rx="2" ry="2" />
<text  x="23.01" y="335.5" ></text>
</g>
<g >
<title>path/filepath.walk (424,242,420 samples, 0.04%)</title><rect x="12.5" y="405" width="0.5" height="15.0" fill="rgb(248,200,48)" rx="2" ry="2" />
<text  x="15.47" y="415.5" ></text>
</g>
<g >
<title>[containerd-shim-runc-v2] (272,727,270 samples, 0.03%)</title><rect x="11.9" y="517" width="0.3" height="15.0" fill="rgb(211,28,6)" rx="2" ry="2" />
<text  x="14.89" y="527.5" ></text>
</g>
<g >
<title>[kubelet] (161,616,160 samples, 0.02%)</title><rect x="20.2" y="149" width="0.2" height="15.0" fill="rgb(242,174,41)" rx="2" ry="2" />
<text  x="23.22" y="159.5" ></text>
</g>
<g >
<title>[libsystemd.so.0.32.0] (141,414,140 samples, 0.01%)</title><rect x="14.6" y="581" width="0.2" height="15.0" fill="rgb(225,93,22)" rx="2" ry="2" />
<text  x="17.58" y="591.5" ></text>
</g>
<g >
<title>in:imjournal (1,555,555,540 samples, 0.16%)</title><rect x="14.3" y="613" width="1.9" height="15.0" fill="rgb(238,154,37)" rx="2" ry="2" />
<text  x="17.32" y="623.5" ></text>
</g>
<g >
<title>[containerd-shim-runc-v2] (242,424,240 samples, 0.03%)</title><rect x="11.9" y="501" width="0.3" height="15.0" fill="rgb(211,28,6)" rx="2" ry="2" />
<text  x="14.90" y="511.5" ></text>
</g>
<g >
<title>[containerd-shim-runc-v2] (202,020,200 samples, 0.02%)</title><rect x="11.9" y="469" width="0.3" height="15.0" fill="rgb(211,28,6)" rx="2" ry="2" />
<text  x="14.91" y="479.5" ></text>
</g>
<g >
<title>[unknown] (232,323,230 samples, 0.02%)</title><rect x="13.8" y="597" width="0.3" height="15.0" fill="rgb(210,24,5)" rx="2" ry="2" />
<text  x="16.84" y="607.5" ></text>
</g>
<g >
<title>jq (2,313,131,290 samples, 0.24%)</title><rect x="16.2" y="613" width="2.9" height="15.0" fill="rgb(248,201,48)" rx="2" ry="2" />
<text  x="19.24" y="623.5" ></text>
</g>
<g >
<title>path/filepath.walk (606,060,600 samples, 0.06%)</title><rect x="12.2" y="469" width="0.8" height="15.0" fill="rgb(248,200,48)" rx="2" ry="2" />
<text  x="15.25" y="479.5" ></text>
</g>
<g >
<title>handle_softirqs (141,414,140 samples, 0.01%)</title><rect x="1189.4" y="341" width="0.2" height="15.0" fill="rgb(238,156,37)" rx="2" ry="2" />
<text  x="1192.40" y="351.5" ></text>
</g>
<g >
<title>[ld-linux-x86-64.so.2] (121,212,120 samples, 0.01%)</title><rect x="13.6" y="581" width="0.2" height="15.0" fill="rgb(243,178,42)" rx="2" ry="2" />
<text  x="16.64" y="591.5" ></text>
</g>
<g >
<title>x64_sys_call (747,474,740 samples, 0.08%)</title><rect x="15.2" y="533" width="0.9" height="15.0" fill="rgb(247,194,46)" rx="2" ry="2" />
<text  x="18.20" y="543.5" ></text>
</g>
<g >
<title>fstatat64 (1,040,404,030 samples, 0.11%)</title><rect x="14.9" y="581" width="1.2" height="15.0" fill="rgb(225,95,22)" rx="2" ry="2" />
<text  x="17.85" y="591.5" ></text>
</g>
<g >
<title>[containerd-shim-runc-v2] (191,919,190 samples, 0.02%)</title><rect x="11.9" y="437" width="0.3" height="15.0" fill="rgb(211,28,6)" rx="2" ry="2" />
<text  x="14.92" y="447.5" ></text>
</g>
<g >
<title>syscall.fstatat (101,010,100 samples, 0.01%)</title><rect x="12.7" y="325" width="0.2" height="15.0" fill="rgb(234,135,32)" rx="2" ry="2" />
<text  x="15.73" y="335.5" ></text>
</g>
<g >
<title>sysvec_call_function_single (141,414,140 samples, 0.01%)</title><rect x="1189.4" y="389" width="0.2" height="15.0" fill="rgb(221,78,18)" rx="2" ry="2" />
<text  x="1192.40" y="399.5" ></text>
</g>
<g >
<title>common_perm_cond (474,747,470 samples, 0.05%)</title><rect x="15.4" y="437" width="0.6" height="15.0" fill="rgb(214,41,9)" rx="2" ry="2" />
<text  x="18.39" y="447.5" ></text>
</g>
<g >
<title>default_idle_call (920,262,617,060 samples, 95.84%)</title><rect x="21.9" y="517" width="1131.0" height="15.0" fill="rgb(213,39,9)" rx="2" ry="2" />
<text  x="24.90" y="527.5" >default_idle_call</text>
</g>
<g >
<title>crictl (90,909,090 samples, 0.01%)</title><rect x="13.5" y="613" width="0.1" height="15.0" fill="rgb(222,81,19)" rx="2" ry="2" />
<text  x="16.48" y="623.5" ></text>
</g>
<g >
<title>[kubelet] (323,232,320 samples, 0.03%)</title><rect x="20.1" y="277" width="0.4" height="15.0" fill="rgb(242,174,41)" rx="2" ry="2" />
<text  x="23.08" y="287.5" ></text>
</g>
<g >
<title>__irq_exit_rcu (141,414,140 samples, 0.01%)</title><rect x="1189.4" y="357" width="0.2" height="15.0" fill="rgb(227,101,24)" rx="2" ry="2" />
<text  x="1192.40" y="367.5" ></text>
</g>
<g >
<title>__x64_sys_newfstatat (747,474,740 samples, 0.08%)</title><rect x="15.2" y="517" width="0.9" height="15.0" fill="rgb(246,191,45)" rx="2" ry="2" />
<text  x="18.20" y="527.5" ></text>
</g>
<g >
<title>path/filepath.walk (484,848,480 samples, 0.05%)</title><rect x="12.4" y="421" width="0.6" height="15.0" fill="rgb(248,200,48)" rx="2" ry="2" />
<text  x="15.40" y="431.5" ></text>
</g>
<g >
<title>apparmor_inode_getattr (505,050,500 samples, 0.05%)</title><rect x="15.4" y="453" width="0.6" height="15.0" fill="rgb(208,16,4)" rx="2" ry="2" />
<text  x="18.35" y="463.5" ></text>
</g>
<g >
<title>[kubelet] (1,121,212,110 samples, 0.12%)</title><rect x="19.4" y="501" width="1.4" height="15.0" fill="rgb(242,174,41)" rx="2" ry="2" />
<text  x="22.38" y="511.5" ></text>
</g>
<g >
<title>[containerd-shim-runc-v2] (303,030,300 samples, 0.03%)</title><rect x="11.8" y="597" width="0.4" height="15.0" fill="rgb(211,28,6)" rx="2" ry="2" />
<text  x="14.85" y="607.5" ></text>
</g>
<g >
<title>do_syscall_64 (808,080,800 samples, 0.08%)</title><rect x="15.1" y="549" width="1.0" height="15.0" fill="rgb(209,20,4)" rx="2" ry="2" />
<text  x="18.13" y="559.5" ></text>
</g>
<g >
<title>auomscollect (171,717,170 samples, 0.02%)</title><rect x="10.8" y="613" width="0.2" height="15.0" fill="rgb(223,86,20)" rx="2" ry="2" />
<text  x="13.83" y="623.5" ></text>
</g>
<g >
<title>default_idle (29,555,555,260 samples, 3.08%)</title><rect x="1153.3" y="421" width="36.3" height="15.0" fill="rgb(238,154,37)" rx="2" ry="2" />
<text  x="1156.29" y="431.5" >def..</text>
</g>
<g >
<title>finish_task_switch.isra.0 (222,222,220 samples, 0.02%)</title><rect x="1152.9" y="501" width="0.3" height="15.0" fill="rgb(246,189,45)" rx="2" ry="2" />
<text  x="1155.91" y="511.5" ></text>
</g>
<g >
<title>[containerd-shim-runc-v2] (303,030,300 samples, 0.03%)</title><rect x="11.8" y="549" width="0.4" height="15.0" fill="rgb(211,28,6)" rx="2" ry="2" />
<text  x="14.85" y="559.5" ></text>
</g>
<g >
<title>cpuidle_idle_call (920,282,819,080 samples, 95.85%)</title><rect x="21.9" y="533" width="1131.0" height="15.0" fill="rgb(207,9,2)" rx="2" ry="2" />
<text  x="24.88" y="543.5" >cpuidle_idle_call</text>
</g>
<g >
<title>path_name (121,212,120 samples, 0.01%)</title><rect x="15.8" y="405" width="0.2" height="15.0" fill="rgb(234,137,32)" rx="2" ry="2" />
<text  x="18.82" y="415.5" ></text>
</g>
<g >
<title>[kubelet] (888,888,880 samples, 0.09%)</title><rect x="19.6" y="453" width="1.1" height="15.0" fill="rgb(242,174,41)" rx="2" ry="2" />
<text  x="22.60" y="463.5" ></text>
</g>
<g >
<title>os.lstatNolog (101,010,100 samples, 0.01%)</title><rect x="12.7" y="341" width="0.2" height="15.0" fill="rgb(239,159,38)" rx="2" ry="2" />
<text  x="15.73" y="351.5" ></text>
</g>
<g >
<title>[kubelet] (222,222,220 samples, 0.02%)</title><rect x="20.2" y="181" width="0.2" height="15.0" fill="rgb(242,174,41)" rx="2" ry="2" />
<text  x="23.17" y="191.5" ></text>
</g>
<g >
<title>cpuidle_idle_call (29,555,555,260 samples, 3.08%)</title><rect x="1153.3" y="469" width="36.3" height="15.0" fill="rgb(207,9,2)" rx="2" ry="2" />
<text  x="1156.29" y="479.5" >cpu..</text>
</g>
<g >
<title>default_idle (920,232,314,030 samples, 95.84%)</title><rect x="21.9" y="485" width="1130.9" height="15.0" fill="rgb(238,154,37)" rx="2" ry="2" />
<text  x="24.93" y="495.5" >default_idle</text>
</g>
<g >
<title>[kubelet] (707,070,700 samples, 0.07%)</title><rect x="19.8" y="405" width="0.9" height="15.0" fill="rgb(242,174,41)" rx="2" ry="2" />
<text  x="22.81" y="415.5" ></text>
</g>
<g >
<title>asm_sysvec_hyperv_stimer0 (272,727,270 samples, 0.03%)</title><rect x="1152.5" y="469" width="0.3" height="15.0" fill="rgb(225,94,22)" rx="2" ry="2" />
<text  x="1155.51" y="479.5" ></text>
</g>
<g >
<title>containerd-shim (303,030,300 samples, 0.03%)</title><rect x="11.8" y="613" width="0.4" height="15.0" fill="rgb(208,17,4)" rx="2" ry="2" />
<text  x="14.85" y="623.5" ></text>
</g>
<g >
<title>[libjq.so.1.0.4] (1,161,616,150 samples, 0.12%)</title><rect x="16.4" y="597" width="1.4" height="15.0" fill="rgb(240,161,38)" rx="2" ry="2" />
<text  x="19.38" y="607.5" ></text>
</g>
<g >
<title>[kubelet] (515,151,510 samples, 0.05%)</title><rect x="20.0" y="341" width="0.6" height="15.0" fill="rgb(242,174,41)" rx="2" ry="2" />
<text  x="22.98" y="351.5" ></text>
</g>
<g >
<title>[crictl] (90,909,090 samples, 0.01%)</title><rect x="13.5" y="565" width="0.1" height="15.0" fill="rgb(234,134,32)" rx="2" ry="2" />
<text  x="16.48" y="575.5" ></text>
</g>
<g >
<title>[kubelet] (707,070,700 samples, 0.07%)</title><rect x="19.8" y="421" width="0.9" height="15.0" fill="rgb(242,174,41)" rx="2" ry="2" />
<text  x="22.81" y="431.5" ></text>
</g>
<g >
<title>runtime.gcBgMarkWorker.func2 (131,313,130 samples, 0.01%)</title><rect x="13.2" y="533" width="0.2" height="15.0" fill="rgb(250,209,50)" rx="2" ry="2" />
<text  x="16.23" y="543.5" ></text>
</g>
<g >
<title>asm_sysvec_call_function_single (141,414,140 samples, 0.01%)</title><rect x="1189.4" y="405" width="0.2" height="15.0" fill="rgb(234,136,32)" rx="2" ry="2" />
<text  x="1192.40" y="415.5" ></text>
</g>
<g >
<title>arch_cpu_idle (920,232,314,030 samples, 95.84%)</title><rect x="21.9" y="501" width="1130.9" height="15.0" fill="rgb(218,62,14)" rx="2" ry="2" />
<text  x="24.93" y="511.5" >arch_cpu_idle</text>
</g>
<g >
<title>[kubelet] (131,313,130 samples, 0.01%)</title><rect x="20.2" y="133" width="0.2" height="15.0" fill="rgb(242,174,41)" rx="2" ry="2" />
<text  x="23.23" y="143.5" ></text>
</g>
<g >
<title>prepend_path (101,010,100 samples, 0.01%)</title><rect x="15.8" y="341" width="0.2" height="15.0" fill="rgb(233,131,31)" rx="2" ry="2" />
<text  x="18.85" y="351.5" ></text>
</g>
<g >
<title>runtime.goexit.abi0 (121,212,120 samples, 0.01%)</title><rect x="11.1" y="597" width="0.2" height="15.0" fill="rgb(246,190,45)" rx="2" ry="2" />
<text  x="14.14" y="607.5" ></text>
</g>
<g >
<title>do_idle (920,636,354,430 samples, 95.88%)</title><rect x="21.9" y="549" width="1131.4" height="15.0" fill="rgb(212,34,8)" rx="2" ry="2" />
<text  x="24.88" y="559.5" >do_idle</text>
</g>
</g>
</svg>
